<?xml version="1.0" encoding="UTF-8" standalone="no"?>
<!-- Created with Inkscape (http://www.inkscape.org/) -->

<svg
    width="128"
    height="64"
    viewBox="0 0 128 64.000003"
    version="1.1"
    id="svg5"
    inkscape:version="1.2.2 (b0a8486541, 2022-12-01)"
    sodipodi:docname="logo.svg"
    xmlns:inkscape="http://www.inkscape.org/namespaces/inkscape"
    xmlns:sodipodi="http://sodipodi.sourceforge.net/DTD/sodipodi-0.dtd"
    xmlns:xlink="http://www.w3.org/1999/xlink"
    xmlns="http://www.w3.org/2000/svg"
    xmlns:svg="http://www.w3.org/2000/svg">
    <sodipodi:namedview
        id="namedview7"
        pagecolor="#505050"
        bordercolor="#eeeeee"
        borderopacity="1"
        inkscape:showpageshadow="0"
        inkscape:pageopacity="0"
        inkscape:pagecheckerboard="0"
        inkscape:deskcolor="#505050"
        inkscape:document-units="px"
        showgrid="false"
        showguides="true"
        inkscape:zoom="64"
        inkscape:cx="63.976562"
        inkscape:cy="42.742187"
        inkscape:window-width="2560"
        inkscape:window-height="1408"
        inkscape:window-x="0"
        inkscape:window-y="0"
        inkscape:window-maximized="1"
        inkscape:current-layer="layer1">
        <sodipodi:guide
            position="8.3124997,25.337241"
            orientation="0,-1"
            id="guide2512"
            inkscape:locked="false" />
        <sodipodi:guide
            position="17.462587,34.375001"
            orientation="1,0"
            id="guide3628"
            inkscape:locked="false" />
        <sodipodi:guide
            position="110.53742,34.875001"
            orientation="1,0"
            id="guide3630"
            inkscape:locked="false" />
        <sodipodi:guide
            position="64.000005,22.681066"
            orientation="1,0"
            id="guide17075"
            inkscape:locked="false" />
        <sodipodi:guide
            position="35.620504,52.273991"
            orientation="1,0"
            id="guide19475"
            inkscape:locked="false" />
        <sodipodi:guide
            position="38.360543,51.448857"
            orientation="0,-1"
            id="guide19813"
            inkscape:locked="false" />
    </sodipodi:namedview>
    <defs
        id="defs2">
        <marker
            style="overflow:visible"
            id="marker9466"
            refX="-2"
            refY="0"
            orient="auto-start-reverse"
            inkscape:stockid="Dot"
            markerWidth="4"
            markerHeight="4"
            viewBox="0 0 5.4 5.4"
            inkscape:isstock="true"
            inkscape:collect="always"
            preserveAspectRatio="xMidYMid">
            <path
                transform="scale(0.45)"
                style="fill:context-fill;fill-rule:evenodd;stroke:context-stroke;stroke-width:2"
                d="M 5,0 C 5,2.76 2.76,5 0,5 -2.76,5 -5,2.76 -5,0 c 0,-2.76 2.3,-5 5,-5 2.76,0 5,2.24 5,5 z"
                id="path9464"
                sodipodi:nodetypes="sssss" />
        </marker>
        <linearGradient
            inkscape:collect="always"
            id="linearGradient15415">
            <stop
                style="stop-color:#1e1828;stop-opacity:0.60000002;"
                offset="0"
                id="stop15411" />
            <stop
                style="stop-color:#0d0024;stop-opacity:0;"
                offset="1"
                id="stop15413" />
        </linearGradient>
        <marker
            markerWidth="1.2880244"
            markerHeight="1.9999999"
            refX="0.08777906"
            refY="0"
            orient="auto-start-reverse"
            id="marker3710"
            viewBox="0 0 1.05 2"
            inkscape:stockid="pin"
            style="overflow:visible"
            preserveAspectRatio="none"
            inkscape:isstock="true"
            inkscape:collect="always">
            <path
                id="path3708"
                style="fill:context-stroke;stroke-linecap:butt"
                d="M 0,-1 H 0.585 C 1.33,-1 1.7,-1.6 2,-2 V 2 C 1.7,1.6 1.33,1 0.585,1 H 0 L -0.1,0 Z"
                sodipodi:nodetypes="sssssscsss"
                transform="scale(0.5)" />
        </marker>
        <linearGradient
            inkscape:collect="always"
            xlink:href="#linearGradient15415"
            id="linearGradient15417"
            x1="63.999744"
            y1="47.911289"
            x2="63.999744"
            y2="11.167803"
            gradientUnits="userSpaceOnUse"
            gradientTransform="translate(0.01224179)" />
        <filter
            inkscape:collect="always"
            style="color-interpolation-filters:sRGB"
            id="filter12820"
            x="-0.085611433"
            y="-0.17751277"
            width="1.1632203"
            height="1.3724445">
            <feGaussianBlur
                inkscape:collect="always"
                stdDeviation="3.0099835"
                id="feGaussianBlur12822" />
        </filter>
    </defs>
    <g
        inkscape:label="Layer 1"
        inkscape:groupmode="layer"
        id="layer1">
        <path
            style="fill:url(#linearGradient15417);fill-opacity:1;stroke:none;stroke-width:0.623622;stroke-dasharray:none;marker-start:url(#marker3710);marker-end:url(#marker3710);filter:url(#filter12820)"
            d="m 17.462587,42.695313 c 0.986175,-55.174508 93.994043,-53.33891 93.074833,0 -34.795726,-3.144415 -64.740389,-2.24358 -93.074833,0 z"
            id="path15382"
            sodipodi:nodetypes="ccc" />
        <g
            aria-label="Keen Vectors"
            id="text2242"
            style="font-size:21.3333px;font-family:'Linux Libertine Display';-inkscape-font-specification:'Linux Libertine Display';letter-spacing:-1.3px;word-spacing:-4px;fill:#ffffff">
            <path
                d="m 21.691749,36.079431 q 0.02083,1.281248 0.354166,1.593747 0.333333,0.302083 1.499998,0.34375 0.239583,0.260416 0,0.489582 -0.46875,0 -1.322915,-0.05208 -0.854165,-0.05208 -1.427081,-0.05208 -0.593749,0 -1.458331,0.05208 -0.864582,0.05208 -1.312498,0.05208 -0.08333,-0.104166 -0.08333,-0.249999 0,-0.15625 0.08333,-0.239583 1.177081,-0.04167 1.489581,-0.34375 0.322916,-0.312499 0.343749,-1.593747 0.08333,-3.541661 0.08333,-4.520826 0,-1.041665 -0.08333,-4.593743 -0.02083,-1.281248 -0.343749,-1.583331 -0.3125,-0.3125 -1.489581,-0.354166 -0.08333,-0.104167 -0.08333,-0.25 0,-0.156249 0.08333,-0.239583 0.468749,0 1.312498,0.05208 0.843749,0.05208 1.416664,0.05208 0.593749,0 1.468748,-0.05208 0.874999,-0.05208 1.322915,-0.05208 0.239583,0.260417 0,0.489583 -1.177082,0.04167 -1.510415,0.354166 -0.322916,0.302083 -0.343749,1.583331 -0.0625,2.427079 -0.0625,4.145827 1.177081,-0.08333 1.937497,-0.947916 l 3.416661,-3.749994 q 0.468749,-0.468749 0.354166,-0.760415 -0.114583,-0.302083 -0.416666,-0.437499 -0.302083,-0.145834 -0.749999,-0.1875 -0.08333,-0.104167 -0.08333,-0.25 0,-0.156249 0.08333,-0.239583 0.46875,0 1.270832,0.05208 0.802082,0.05208 1.249998,0.05208 0.447916,0 1.104165,-0.05208 0.666665,-0.05208 1.135415,-0.05208 0.239583,0.260417 0,0.489583 -1.729164,0.208333 -2.906246,1.468748 l -3.135412,3.218744 q -0.749998,0.770833 -0.739582,1.052082 0,0.208333 0.270833,0.531249 l 4.677076,5.541658 q 0.770832,0.958332 2.093747,1.177082 0.239583,0.260416 0,0.489582 -0.468749,0 -1.208332,-0.05208 -0.739582,-0.05208 -1.166664,-0.05208 -0.364583,0 -0.624999,0.05208 -0.25,0.05208 -0.395833,0.05208 -0.104167,0 -0.104167,-0.125 -0.08333,-0.635415 -0.770832,-1.541664 l -3.354161,-4.218743 q -0.708332,-0.874999 -1.937497,-0.916665 0,1.812497 0.0625,4.374993 z"
                id="path7375" />
            <path
                d="m 32.079231,32.881519 4.124993,-0.114583 q 0.302083,0 0.291666,-0.270833 0,-1.218748 -0.562499,-1.874997 -0.562499,-0.666666 -1.354164,-0.666666 -0.749999,0 -1.499998,0.697916 -0.739582,0.697916 -0.999998,2.229163 z m 5.635407,3.624994 q 0.34375,0.02083 0.427083,0.333333 -1.343748,1.770831 -3.562494,1.770831 -2.135414,0 -3.218745,-1.291665 -0.958332,-1.104165 -0.958332,-3.031245 0,-2.17708 1.302081,-3.499995 1.302081,-1.322914 2.874996,-1.322914 1.937497,0 2.739579,1.041665 0.802082,1.031248 0.802082,2.541663 0,0.364582 -0.385416,0.364582 l -5.718741,0.08333 q 0,1.812498 0.645832,2.854163 0.447916,0.729165 1.124998,1.104165 0.687499,0.374999 1.302082,0.374999 0.812498,0 1.395831,-0.333333 0.593749,-0.333333 1.229164,-0.989582 z"
                id="path7377" />
            <path
                d="m 40.195882,32.881519 4.124994,-0.114583 q 0.302082,0 0.291666,-0.270833 0,-1.218748 -0.562499,-1.874997 -0.562499,-0.666666 -1.354165,-0.666666 -0.749999,0 -1.499997,0.697916 -0.739583,0.697916 -0.999999,2.229163 z m 5.635408,3.624994 q 0.343749,0.02083 0.427083,0.333333 -1.343748,1.770831 -3.562495,1.770831 -2.135413,0 -3.218745,-1.291665 -0.958332,-1.104165 -0.958332,-3.031245 0,-2.17708 1.302082,-3.499995 1.302081,-1.322914 2.874995,-1.322914 1.937497,0 2.739579,1.041665 0.802082,1.031248 0.802082,2.541663 0,0.364582 -0.385416,0.364582 l -5.718741,0.08333 q 0,1.812498 0.645833,2.854163 0.447916,0.729165 1.124998,1.104165 0.687499,0.374999 1.302081,0.374999 0.812499,0 1.395831,-0.333333 0.593749,-0.333333 1.229165,-0.989582 z"
                id="path7379" />
            <path
                d="m 49.468783,31.131522 q 1.489581,-1.666664 3.562494,-1.666664 1.197915,0 1.729164,0.697915 0.229167,0.322917 0.322916,0.770833 0.09375,0.437499 0.09375,1.041665 0,0.135416 -0.01042,0.312499 0,0.177083 -0.01042,0.28125 0,0.104166 -0.01042,0.333332 -0.0625,1.645831 0,3.281245 0.04167,1.218748 0.260417,1.489581 0.229166,0.260416 1.104164,0.34375 0.208333,0.260416 0,0.489582 -0.406249,0 -1.020831,-0.05208 -0.614583,-0.05208 -1.062499,-0.05208 -0.427082,0 -1.052081,0.05208 -0.614583,0.05208 -0.999999,0.05208 -0.208333,-0.239583 0,-0.489582 0.812499,-0.08333 1.010415,-0.34375 0.208333,-0.270833 0.25,-1.489581 0.0625,-1.791664 0,-3.562494 -0.04167,-1.281248 -0.21875,-1.583331 -0.364582,-0.729165 -1.083331,-0.718749 -0.614583,0 -1.374998,0.333333 -0.760416,0.322916 -1.312498,0.854165 -0.322916,0.364583 -0.34375,0.854166 -0.0625,1.281248 0,3.82291 0.02083,1.218748 0.208333,1.489581 0.197917,0.260416 1.010416,0.34375 0.08333,0.08333 0.08333,0.239583 0,0.145833 -0.08333,0.249999 -0.385416,0 -0.958332,-0.05208 -0.562499,-0.05208 -0.989582,-0.05208 -0.489583,0 -1.177081,0.05208 -0.677083,0.05208 -1.020832,0.05208 -0.08333,-0.104166 -0.08333,-0.249999 0,-0.15625 0.08333,-0.239583 0.937498,-0.08333 1.177081,-0.34375 0.239583,-0.270833 0.260417,-1.489581 0.0625,-2.583329 0,-4.437493 -0.02083,-0.874998 -0.260417,-1.083331 -0.229166,-0.21875 -1.062498,-0.302083 -0.08333,-0.239583 -0.04167,-0.364583 1.791664,-0.239583 2.687496,-0.572916 0.260416,0 0.25,0.145833 -0.104167,0.937499 -0.104167,1.562498 0,0.260416 0.1875,0 z"
                id="path7381" />
            <path
                d="m 66.764581,25.027365 q -0.08333,-0.104167 -0.09375,-0.25 0,-0.156249 0.09375,-0.239583 0.531249,0.02083 1.302081,0.0625 0.781249,0.04167 1.010415,0.04167 0.239583,0 0.833332,-0.04167 0.604166,-0.04167 1.052082,-0.0625 0.239583,0.260417 0,0.489583 -0.499999,0.0625 -0.885415,0.270833 -0.385416,0.197916 -0.656249,0.562499 -0.270833,0.364583 -0.427083,0.656249 -0.145833,0.291666 -0.343749,0.770832 l -4.406243,10.874983 q -0.1875,0.489582 -0.510416,0.499999 -0.302083,0 -0.489583,-0.499999 L 59.02501,27.246111 q -0.489583,-1.260414 -0.874999,-1.697914 -0.385416,-0.447916 -1.249998,-0.520832 -0.260416,-0.260416 -0.02083,-0.489583 0.468749,0 1.229165,0.05208 0.760415,0.05208 1.208331,0.05208 0.447916,0 1.281248,-0.05208 0.833332,-0.05208 1.302081,-0.05208 0.08333,0.08333 0.08333,0.239583 0,0.145833 -0.08333,0.25 -1.052081,0.104166 -1.260414,0.572916 -0.208333,0.458332 0.197916,1.406247 l 3.395828,8.687487 0.1875,0.270833 0.104166,-0.270833 3.364578,-8.55207 q 0.427083,-0.874999 0.197917,-1.458331 -0.21875,-0.593749 -1.322915,-0.656249 z"
                id="path7383" />
            <path
                d="m 69.172904,32.881519 4.124994,-0.114583 q 0.302083,0 0.291666,-0.270833 0,-1.218748 -0.562499,-1.874997 -0.562499,-0.666666 -1.354165,-0.666666 -0.749998,0 -1.499997,0.697916 -0.739582,0.697916 -0.999999,2.229163 z m 5.635408,3.624994 q 0.34375,0.02083 0.427083,0.333333 -1.343748,1.770831 -3.562495,1.770831 -2.135413,0 -3.218745,-1.291665 -0.958331,-1.104165 -0.958331,-3.031245 0,-2.17708 1.302081,-3.499995 1.302081,-1.322914 2.874995,-1.322914 1.937497,0 2.739579,1.041665 0.802082,1.031248 0.802082,2.541663 0,0.364582 -0.385416,0.364582 l -5.718741,0.08333 q 0,1.812498 0.645833,2.854163 0.447916,0.729165 1.124998,1.104165 0.687499,0.374999 1.302081,0.374999 0.812499,0 1.395831,-0.333333 0.593749,-0.333333 1.229165,-0.989582 z"
                id="path7385" />
            <path
                d="m 83.164545,36.54818 q -1.281248,2.072913 -3.416662,2.062497 -1.89583,0 -3.020828,-1.218748 -1.114582,-1.229165 -1.114582,-3.218745 0,-2.05208 1.333331,-3.374995 1.333332,-1.333331 2.947912,-1.333331 1.447915,0 2.343747,0.541666 0.906248,0.541665 0.906248,1.395831 0,0.447916 -0.302082,0.677082 -0.302083,0.21875 -0.687499,0.21875 -0.687499,0 -0.760416,-0.718749 -0.1875,-1.624998 -1.604164,-1.624998 -1.041665,0 -1.80208,1.072915 -0.760416,1.062499 -0.760416,2.697913 0,1.854164 0.864582,2.979162 0.864582,1.124998 2.104163,1.124998 0.656249,0 1.395831,-0.416666 0.739583,-0.416666 1.249999,-1.083332 0.239582,0.03125 0.322916,0.21875 z"
                id="path7387" />
            <path
                d="m 83.499958,29.673191 h 0.937499 q 0,-0.999999 -0.01042,-1.624998 -0.01042,-0.635415 -0.03125,-0.874998 -0.02083,-0.25 -0.02083,-0.291666 0,-0.104167 0.08333,-0.15625 0.09375,-0.05208 0.302083,-0.114583 0.21875,-0.07292 0.322916,-0.114583 0.125,-0.04167 0.291666,-0.135417 0.177083,-0.09375 0.302083,-0.15625 0.125,-0.07292 0.197917,-0.07292 0.145833,0 0.145833,0.197916 -0.0625,0.812499 -0.08333,2.135413 l -0.02083,1.208332 h 2.447913 q 0.145833,0 0.15625,0.135416 v 0.229167 q 0,0.260416 -0.499999,0.260416 h -2.104164 q -0.166666,3.864577 -0.114583,5.520824 0.04167,1.041666 0.166666,1.458332 0.135417,0.416666 0.520833,0.416666 0.854165,0 1.812497,-0.718749 0.166667,0.04167 0.21875,0.291666 -1.197915,1.343748 -2.760413,1.343748 -1.427081,0 -1.427081,-2.02083 0,-0.552083 0.05208,-2.864579 0.05208,-2.322913 0.05208,-3.427078 h -1.187498 q -0.104167,0 -0.114583,-0.135417 v -0.187499 q 0,-0.302083 0.364582,-0.302083 z"
                id="path7389" />
            <path
                d="m 88.44995,34.2461 q 0,-2.031246 1.124999,-3.354161 1.218748,-1.427081 3.187495,-1.427081 1.468747,0 2.468746,0.729165 0.999998,0.718749 1.395831,1.718748 0.395833,0.989581 0.395833,2.135413 0,2.11458 -1.322915,3.416661 -1.197915,1.156248 -2.979162,1.145832 -2.031247,0 -3.156245,-1.312498 Q 88.44995,35.975264 88.44995,34.2461 Z m 4.010411,-4.29166 q -1.260415,0 -1.822914,1.135415 -0.562499,1.124999 -0.562499,2.687496 0,0.874999 0.270833,1.822914 0.281249,0.947915 0.979165,1.73958 0.708332,0.781249 1.687497,0.781249 0.874999,0 1.635414,-0.843748 0.760416,-0.854166 0.760416,-2.58333 0,-2.17708 -0.812499,-3.458328 -0.812499,-1.281248 -2.135413,-1.281248 z"
                id="path7391" />
            <path
                d="m 98.733263,31.746104 q -0.02083,-0.833332 -0.260416,-1.062498 -0.229166,-0.239583 -1.062498,-0.322916 -0.104167,-0.166667 -0.04167,-0.364583 1.510415,-0.208333 2.510413,-0.572916 0.208335,0 0.260415,0.125 0.0625,0.1875 0.0625,1.427081 0,0.28125 0.0937,0.270833 0.0312,-0.01042 0.0833,-0.07292 1.13542,-1.708331 2.26042,-1.708331 0.65625,0 0.9375,0.302083 0.29166,0.291666 0.29166,0.677082 0,0.385416 -0.29166,0.666666 -0.28125,0.270833 -0.66667,0.270833 -0.10417,0 -0.19792,-0.03125 -0.0937,-0.03125 -0.16666,-0.07292 -0.0625,-0.04167 -0.14584,-0.135416 -0.0833,-0.104167 -0.11458,-0.135417 -0.0312,-0.03125 -0.13542,-0.145833 -0.0937,-0.114583 -0.0937,-0.135416 -0.14583,-0.1875 -0.42708,-0.1875 -0.27083,-0.01042 -0.91666,1.083331 -0.44792,0.770833 -0.48959,1.468748 -0.0625,1.343748 0,3.114579 0.0417,1.239581 0.29167,1.499997 0.26042,0.25 1.375,0.333333 0.23958,0.239583 0,0.468749 -0.38542,0 -1.17708,-0.05208 -0.781252,-0.05208 -1.229168,-0.05208 -0.447916,0 -1.166665,0.05208 -0.718748,0.05208 -1.083331,0.05208 -0.239583,-0.239583 0,-0.468749 0.979165,-0.0625 1.218748,-0.322916 0.239583,-0.270833 0.281249,-1.510414 0.08333,-2.218747 0,-4.458327 z"
                id="path7393" />
            <path
                d="m 103.91242,35.714848 q 0.20833,-0.208333 0.40625,-0.02083 0.34375,1.364581 0.89583,1.89583 0.55209,0.552082 1.5625,0.552082 0.61458,0 1.19791,-0.468749 0.59375,-0.468749 0.59375,-1.166665 0,-0.656249 -0.44791,-1.093748 -0.44792,-0.447916 -1.6875,-0.958332 -1.23958,-0.531249 -1.73958,-1.083331 -0.5,-0.562499 -0.5,-1.624998 0,-0.958332 0.86458,-1.614581 0.86458,-0.666665 2.01042,-0.666665 0.46875,0 0.95833,0.07292 0.5,0.07292 1.01041,0.197917 0.51042,0.114583 0.67709,0.135416 0,0.260416 -0.0521,0.947915 -0.0521,0.687499 -0.0521,1.093749 -0.23958,0.239583 -0.44792,0.02083 -0.30208,-2.010414 -2.09374,-1.999997 -0.53125,0 -1.02084,0.458333 -0.48958,0.458332 -0.48958,1.052081 0,0.749999 0.5,1.156249 0.5,0.406249 1.61458,0.833332 1.17708,0.447916 1.78125,1.052081 0.60416,0.593749 0.60416,1.552081 0,0.708332 -0.34374,1.239582 -0.34375,0.531249 -0.86459,0.812498 -0.52083,0.270833 -1.04166,0.395833 -0.52083,0.125 -0.98958,0.125 -0.97917,0 -1.85417,-0.229167 -0.14583,-0.04167 -0.40625,-0.04167 -0.1875,0 -0.52083,0.0625 0,-1.197915 -0.125,-2.687496 z"
                id="path7395" />
        </g>
        <g
            id="g1676"
            transform="translate(0,0.65617453)">
            <path
                style="fill:none;stroke:#209fdf;stroke-width:0.5;stroke-dasharray:none;stroke-opacity:1;marker-start:url(#marker9466);marker-end:url(#marker9466)"
                d="M 17.462587,40.66276 H 110.53742"
                id="path246" />
            <circle
                style="fill:#209fdf;fill-opacity:1;stroke:none;stroke-width:1.35346;stroke-dasharray:none;stroke-opacity:1"
                id="path1560"
                cx="64"
                cy="40.662762"
                r="1" />
        </g>
    </g>
</svg>
